<svg width="12" height="12" viewBox="0 0 12 12" fill-rule="evenodd" xmlns="http://www.w3.org/2000/svg">
<path fill-rule="evenodd" clip-rule="evenodd" d="M0.342881 10.2424C-0.0476433 10.633 -0.0476433 11.2661 0.342881 11.6567C0.733405 12.0472 1.36657 12.0472 1.75709 11.6567L5.99972 7.41402L10.2424 11.6567C10.6329 12.0472 11.2661 12.0472 11.6566 11.6567C12.0471 11.2661 12.0471 10.633 11.6566 10.2425L7.41394 5.99981L11.6566 1.75716C12.0471 1.36663 12.0471 0.733466 11.6566 0.342942C11.2661 -0.0475822 10.6329 -0.0475822 10.2424 0.342942L5.99972 4.58559L1.75709 0.342962C1.36657 -0.0475621 0.733405 -0.0475621 0.342881 0.342962C-0.0476433 0.733486 -0.0476433 1.36665 0.342881 1.75718L4.58551 5.99981L0.342881 10.2424Z" />
</svg>
