<svg width="56" height="56" viewBox="0 0 56 56" fill="none" xmlns="http://www.w3.org/2000/svg">
<path fill-rule="evenodd" clip-rule="evenodd" d="M11.9287 24.1792C9.75823 24.1792 7.99985 22.4356 7.99985 20.2888C7.99985 18.1416 9.75823 16.4 11.9287 16.4C14.0992 16.4 15.858 18.1416 15.858 20.2888C15.858 22.4356 14.0992 24.1792 11.9287 24.1792ZM12.8793 47.6533C12.0288 47.6533 11.1778 47.3325 10.5294 46.6901C9.23118 45.4049 9.23118 43.3213 10.5294 42.0377C20.118 32.5433 35.7213 32.5433 45.3096 42.0357C46.6073 43.3209 46.6073 45.4037 45.3096 46.6889C44.0118 47.9733 41.9075 47.9733 40.6098 46.6889C33.6118 39.7613 22.2271 39.7613 15.2279 46.6901C14.5803 47.3325 13.7294 47.6533 12.8793 47.6533ZM39.9804 20.2888C39.9804 22.4356 41.7388 24.1792 43.9093 24.1792C46.0798 24.1792 47.8386 22.4356 47.8386 20.2888C47.8386 18.1416 46.0798 16.4 43.9093 16.4C41.7388 16.4 39.9804 18.1416 39.9804 20.2888Z" fill="white"/>
</svg>
