<svg width="20" height="20" viewBox="0 0 20 20" fill-rule="evenodd"  xmlns="http://www.w3.org/2000/svg">
<path fill-rule="evenodd" clip-rule="evenodd" d="M14.2951 2.5L5.50406 2.50136C4.66848 2.5131 4.27237 2.60085 3.93296 2.75701L3.77894 2.83392C3.37154 3.0518 3.0518 3.37154 2.83392 3.77894C2.61603 4.18635 2.5 4.59046 2.5 5.70486L2.50136 14.4959C2.5131 15.3315 2.60085 15.7276 2.75701 16.067L2.83392 16.2211C3.0518 16.6285 3.37154 16.9482 3.77894 17.1661C4.18635 17.384 4.59046 17.5 5.70486 17.5H14.2951C15.2702 17.5 15.7015 17.4112 16.067 17.243L16.2211 17.1661C16.6285 16.9482 16.9482 16.6285 17.1661 16.2211C17.384 15.8137 17.5 15.4095 17.5 14.2951V5.70486C17.5 4.72976 17.4112 4.29848 17.243 3.93296L17.1661 3.77894C16.9482 3.37154 16.6285 3.0518 16.2211 2.83392C15.8137 2.61603 15.4095 2.5 14.2951 2.5ZM6.66667 10.8333H13.3333C13.7917 10.8333 14.1667 10.4583 14.1667 10C14.1667 9.54167 13.7917 9.16667 13.3333 9.16667H6.66667C6.20833 9.16667 5.83333 9.54167 5.83333 10C5.83333 10.4583 6.20833 10.8333 6.66667 10.8333Z" />
<path fill-rule="evenodd" clip-rule="evenodd" d="M13.3334 10.8333H6.66671C6.20837 10.8333 5.83337 10.4583 5.83337 9.99999C5.83337 9.54166 6.20837 9.16666 6.66671 9.16666H13.3334C13.7917 9.16666 14.1667 9.54166 14.1667 9.99999C14.1667 10.4583 13.7917 10.8333 13.3334 10.8333Z" fill="white"/>
</svg>
