<svg width="16" height="17" viewBox="0 0 16 17" fill-rule="evenodd" xmlns="http://www.w3.org/2000/svg">
<path d="M11.7316 10.8176H10.9902L10.7274 10.5644C11.8536 9.25123 12.4355 7.45971 12.1164 5.55563C11.6753 2.94808 9.49792 0.865784 6.87006 0.546875C2.90012 0.0591308 -0.441005 3.3983 0.0470248 7.36591C0.366121 9.99223 2.44964 12.1683 5.05872 12.6092C6.96391 12.9281 8.75649 12.3465 10.0704 11.221L10.3238 11.4836V12.2246L14.3125 16.211C14.6973 16.5955 15.3261 16.5955 15.7109 16.211C16.0957 15.8264 16.0957 15.198 15.7109 14.8134L11.7316 10.8176ZM6.10048 10.8176C3.76356 10.8176 1.87714 8.93232 1.87714 6.59678C1.87714 4.26123 3.76356 2.37592 6.10048 2.37592C8.43739 2.37592 10.3238 4.26123 10.3238 6.59678C10.3238 8.93232 8.43739 10.8176 6.10048 10.8176Z" fill-rule="evenodd"/>
</svg>
