<svg width="56" height="56" viewBox="0 0 56 56" fill="none" xmlns="http://www.w3.org/2000/svg">
<path fill-rule="evenodd" clip-rule="evenodd" d="M11.932 24.2163C9.75946 24.2163 7.99985 22.4625 7.99985 20.3025C7.99985 18.1425 9.75946 16.3903 11.932 16.3903C14.1046 16.3903 15.8646 18.1425 15.8646 20.3025C15.8646 22.4625 14.1046 24.2163 11.932 24.2163ZM42.9883 35.0182C43.8397 35.0182 44.6911 35.3409 45.3405 35.9872C46.6397 37.28 46.6397 39.3764 45.3405 40.6674C35.7436 50.2194 20.1271 50.2194 10.5311 40.6697C9.23224 39.3768 9.23224 37.2812 10.5311 35.9883C11.8299 34.6962 13.9358 34.6962 15.2346 35.9883C22.2385 42.9577 33.6326 42.9577 40.6377 35.9872C41.286 35.3409 42.1373 35.0182 42.9883 35.0182ZM40.0071 20.3025C40.0071 22.4625 41.7667 24.2163 43.9393 24.2163C46.1118 24.2163 47.8718 22.4625 47.8718 20.3025C47.8718 18.1425 46.1118 16.3903 43.9393 16.3903C41.7667 16.3903 40.0071 18.1425 40.0071 20.3025Z" fill="white"/>
</svg>
